<svg width="120" height="120" viewBox="0 0 120 120" fill="none" xmlns="http://www.w3.org/2000/svg">
<g clip-path="url(#clip0_258_7732)">
<path d="M60 0C26.9169 0 0 26.9146 0 60C0 93.0854 26.9169 120 60 120C93.0831 120 120 93.0854 120 60C120 26.9146 93.0831 0 60 0ZM60 115.385C29.4623 115.385 4.61538 90.5377 4.61538 60C4.61538 29.4623 29.4623 4.61538 60 4.61538C90.5377 4.61538 115.385 29.4623 115.385 60C115.385 90.5377 90.5377 115.385 60 115.385Z" fill="#009661"/>
<path d="M88.2694 35.3917L52.8025 75.2917L31.4355 58.1986C30.4432 57.4025 28.9871 57.5663 28.1932 58.5586C27.3971 59.5556 27.5586 61.0071 28.5532 61.8032L51.6302 80.2648C52.0548 80.604 52.5648 80.7702 53.0725 80.7702C53.7094 80.7702 54.344 80.5071 54.7986 79.9948L91.7218 38.4563C92.5687 37.5056 92.4833 36.0448 91.5302 35.2002C90.5748 34.3509 89.1187 34.4363 88.2694 35.3917Z" fill="#009661"/>
</g>
<defs>
<clipPath id="clip0_258_7732">
<rect width="120" height="120" fill="white"/>
</clipPath>
</defs>
</svg>
